<svg width="25" height="31" viewBox="0 0 25 31" fill="none" xmlns="http://www.w3.org/2000/svg">
<path d="M15.9998 28.5908C15.9998 28.9886 15.8417 29.3702 15.5604 29.6515C15.2791 29.9328 14.8976 30.0908 14.4998 30.0908H10.4998C10.1019 30.0908 9.7204 29.9328 9.4391 29.6515C9.15779 29.3702 8.99976 28.9886 8.99976 28.5908C8.99976 28.193 9.15779 27.8115 9.4391 27.5302C9.7204 27.2489 10.1019 27.0908 10.4998 27.0908H14.4998C14.8976 27.0908 15.2791 27.2489 15.5604 27.5302C15.8417 27.8115 15.9998 28.193 15.9998 28.5908ZM12.4998 14.5908C12.8953 14.5908 13.282 14.4735 13.6109 14.2538C13.9398 14.034 14.1961 13.7216 14.3475 13.3562C14.4989 12.9907 14.5385 12.5886 14.4613 12.2006C14.3842 11.8127 14.1937 11.4563 13.914 11.1766C13.6343 10.8969 13.2779 10.7064 12.8899 10.6293C12.502 10.5521 12.0998 10.5917 11.7344 10.7431C11.3689 10.8944 11.0566 11.1508 10.8368 11.4797C10.6171 11.8086 10.4998 12.1953 10.4998 12.5908C10.4998 13.1213 10.7105 13.63 11.0855 14.005C11.4606 14.3801 11.9693 14.5908 12.4998 14.5908Z" fill="#479C6E"/>
<path d="M24.9409 19.6784L23.3959 26.6322C23.305 27.0472 23.1093 27.432 22.8275 27.75C22.5457 28.0679 22.1871 28.3084 21.7859 28.4484C21.5172 28.5428 21.2345 28.591 20.9497 28.5909C20.3922 28.5905 19.8511 28.4025 19.4134 28.0572L16.1459 25.5909H8.85344L5.58594 28.0584C5.1481 28.4033 4.60701 28.5908 4.04969 28.5909C3.76482 28.5906 3.48206 28.542 3.21344 28.4472C2.8123 28.3071 2.45373 28.0667 2.17189 27.7487C1.89005 27.4308 1.69435 27.046 1.60344 26.6309L0.058438 19.6784C-0.0234795 19.3053 -0.0192226 18.9184 0.0708849 18.5471C0.160992 18.1758 0.334578 17.83 0.578438 17.5359L4.05719 13.3609C4.19027 11.7966 4.55465 10.2608 5.13844 8.80342C6.79719 4.64717 9.76344 2.04092 10.9684 1.11342C11.4067 0.773867 11.9453 0.5896 12.4997 0.5896C13.0541 0.5896 13.5927 0.773867 14.0309 1.11342C15.2309 2.04092 18.2022 4.64717 19.8609 8.80342C20.4447 10.2608 20.8091 11.7966 20.9422 13.3609L24.4209 17.5359C24.6648 17.83 24.8384 18.1758 24.9285 18.5471C25.0186 18.9184 25.0229 19.3053 24.9409 19.6784ZM9.22344 22.5909H15.7759C18.2147 18.1284 18.6509 13.8684 17.0747 9.91592C15.7997 6.71592 13.5247 4.57842 12.4997 3.73092C11.4747 4.57842 9.19969 6.71592 7.92469 9.91592C6.34719 13.8684 6.78469 18.1284 9.22344 22.5909ZM6.40469 23.6809C5.40735 21.8272 4.69438 19.8341 4.28969 17.7684L3.03969 19.2684L4.36219 25.2234L6.40469 23.6809ZM21.9584 19.2672L20.7084 17.7672C20.3037 19.8329 19.5908 21.826 18.5934 23.6797L20.6347 25.2209L21.9584 19.2672Z" fill="#9359F3"/>
</svg>
